<?xml version="1.0" standalone="no"?>
<!DOCTYPE svg PUBLIC "-//W3C//DTD SVG 20010904//EN"
 "http://www.w3.org/TR/2001/REC-SVG-20010904/DTD/svg10.dtd">
<svg version="1.0" xmlns="http://www.w3.org/2000/svg"
 width="400.000000pt" height="400.000000pt" viewBox="0 0 400.000000 400.000000"
 preserveAspectRatio="xMidYMid meet">
<metadata>
Created by potrace 1.11, written by Peter Selinger 2001-2013
</metadata>
<g transform="translate(0.000000,400.000000) scale(0.100000,-0.100000)"
fill="#000000" stroke="none">
<path d="M380 3984 c-92 -25 -162 -65 -230 -134 -37 -37 -77 -89 -92 -120 -61
-125 -58 -27 -57 -1734 0 -1699 -3 -1607 57 -1726 35 -71 142 -178 212 -212
123 -61 29 -58 1730 -58 1702 0 1605 -3 1730 58 72 35 178 141 214 215 58 117
56 39 55 1732 0 1698 3 1606 -57 1725 -35 71 -142 177 -212 213 -119 59 -27
56 -1730 56 -1345 0 -1573 -2 -1620 -15z"/>
</g>
</svg>
