<svg height="400" viewBox="0 0 400 400" width="400" xmlns="http://www.w3.org/2000/svg" xmlns:xlink="http://www.w3.org/1999/xlink"><radialGradient id="a" cx="50%" cy="100%" r="100%"><stop offset="0" stop-color="#fc385b"/><stop offset=".372134692" stop-color="#ee884b"/><stop offset=".662006999" stop-color="#ffc65b"/><stop offset="1" stop-color="#1edd88"/></radialGradient><radialGradient id="b" cx="50%" cy="50%" gradientTransform="matrix(0 .764045 -.767755 0 .883877 .117978)" r="65.441177%"><stop offset="0" stop-color="#fff"/><stop offset=".673279494" stop-color="#fff"/><stop offset=".786363237" stop-color="#fff"/><stop offset=".839997367" stop-color="#f2f2f2"/><stop offset=".954946454" stop-color="#a8a8a8"/><stop offset="1" stop-color="#a2a2a2"/></radialGradient><linearGradient id="c"><stop offset="0" stop-color="#622f00"/><stop offset=".36842302" stop-color="#8e640b"/><stop offset="1" stop-color="#f0c000"/></linearGradient><linearGradient id="d" x1="56.987625%" x2="74.586323%" xlink:href="#c" y1="55.242873%" y2="92.505069%"/><radialGradient id="e" cx="50%" cy="50%" gradientTransform="matrix(.4780613 .86901094 -.86478004 .46569604 .693359 -.167353)" r="55.197889%"><stop offset="0" stop-color="#522b02" stop-opacity="0"/><stop offset=".915723765" stop-color="#522b02" stop-opacity="0"/><stop offset="1" stop-color="#522b02"/></radialGradient><linearGradient id="f" x1="56.99266%" x2="74.604038%" xlink:href="#c" y1="55.242873%" y2="92.505069%"/><linearGradient id="g"><stop offset="0" stop-color="#fff"/><stop offset=".62147785" stop-color="#fff"/><stop offset="1" stop-color="#fff" stop-opacity=".898492"/></linearGradient><radialGradient id="h" cx="50%" cy="50%" gradientTransform="matrix(0 1 -.95590645 0 .977953 0)" r="50%" xlink:href="#g"/><radialGradient id="i" cx="50%" cy="50%" gradientTransform="matrix(0 1 -1.0037016 0 1.001851 0)" r="50%" xlink:href="#g"/><g fill="none" fill-rule="evenodd"><rect fill="url(#a)" height="400" rx="50" width="400"/><g transform="matrix(1 0 0 -1 40 298.093426)"><g fill-rule="nonzero"><path d="m75.2941176 0c-41.5800692 0-75.2941176 44.129218-75.2941176 98.5467128 0 54.4273492 33.7140484 98.5467132 75.2941176 98.5467132 41.5800694 0 75.2941174-44.119364 75.2941174-98.5467132 0-54.4174948-33.714048-98.5467128-75.2941174-98.5467128z" fill="url(#b)"/><path d="m244.705882 0c-41.580069 0-75.294117 44.129218-75.294117 98.5467128 0 54.4273492 33.714048 98.5467132 75.294117 98.5467132 41.58007 0 75.294118-44.119364 75.294118-98.5467132 0-54.4174948-33.714048-98.5467128-75.294118-98.5467128z" fill="url(#b)"/><g fill="#1c2023" transform="translate(16.608997 46.505191)"><path d="m59.050519 29.5640138c0-16.3291903-13.2174745-29.5640138-29.5252595-29.5640138s-29.5252595 13.2348235-29.5252595 29.5640138c0 16.3291904 13.2174745 29.5640139 29.5252595 29.5640139s29.5252595-13.2348235 29.5252595-29.5640139"/><path d="m227.606594 29.5640138c0-16.3291903-13.227317-29.5640138-29.52526-29.5640138s-29.525259 13.2348235-29.525259 29.5640138c0 16.3291904 13.227316 29.5640139 29.525259 29.5640139s29.52526-13.2348235 29.52526-29.5640139"/></g></g><g transform="matrix(1 0 0 -1 9.965398 111.944638)"><ellipse cx="36.213764" cy="36.318339" rx="33.462899" ry="34.010381" stroke="url(#d)" stroke-width="10"/><ellipse cx="36.152249" cy="36.539792" rx="37.652249" ry="38.039792" stroke="url(#e)" stroke-width="3"/></g><g transform="matrix(1 0 0 -1 179.377163 112.498271)"><ellipse cx="36.224016" cy="36.318339" rx="33.473151" ry="34.010381" stroke="url(#f)" stroke-width="10"/><ellipse cx="36.152249" cy="36.539792" rx="37.652249" ry="38.039792" stroke="url(#e)" stroke-width="3"/></g><ellipse cx="184.359862" cy="15.50173" fill="url(#h)" rx="11.626298" ry="9.965398" transform="matrix(.69465837 .7193398 -.7193398 .69465837 81.838216 -49.268146)"/><ellipse cx="15.50173" cy="15.50173" fill="url(#i)" rx="11.072664" ry="9.965398" transform="matrix(.69465837 .7193398 -.7193398 .69465837 30.278799 72.198229)"/></g></g></svg>