<?xml version="1.0" encoding="UTF-8"?>
<svg width="8px" height="8px" viewBox="0 0 8 8" version="1.1" xmlns="http://www.w3.org/2000/svg" xmlns:xlink="http://www.w3.org/1999/xlink">
  <g id="Page-1" stroke="none" stroke-width="1" fill="none" fill-rule="evenodd">
    <g id="Group-Copy" fill="#212121" fill-rule="nonzero">
      <path d="M4,0 C3.446,0 3,0.4459904 3,1 L3,3 L1,3 C0.446,3 0,3.446 0,4 C0,4.554 0.446,5 1,5 L3,5 L3,7 C3,7.55401 3.446,8 4,8 C4.554,8 5,7.55401 5,7 L5,5 L7,5 C7.554,5 8,4.554 8,4 C8,3.446 7.554,3 7,3 L5,3 L5,1 C5,0.4459904 4.554,0 4,0 Z" id="plus-light"></path>
    </g>
  </g>
</svg>
